<svg xmlns="http://www.w3.org/2000/svg" viewBox="0 0 100 100">
  <rect width="100" height="100" rx="20" fill="#4f46e5"/>
  <g fill="white">
    <!-- QR code pattern -->
    <rect x="15" y="15" width="20" height="20"/>
    <rect x="65" y="15" width="20" height="20"/>
    <rect x="15" y="65" width="20" height="20"/>
    <rect x="20" y="20" width="10" height="10" fill="#4f46e5"/>
    <rect x="70" y="20" width="10" height="10" fill="#4f46e5"/>
    <rect x="20" y="70" width="10" height="10" fill="#4f46e5"/>
    <!-- Center dots -->
    <rect x="42" y="15" width="8" height="8"/>
    <rect x="50" y="23" width="8" height="8"/>
    <rect x="42" y="42" width="16" height="16"/>
    <rect x="15" y="42" width="8" height="8"/>
    <rect x="77" y="42" width="8" height="8"/>
    <rect x="65" y="50" width="8" height="8"/>
    <rect x="42" y="77" width="8" height="8"/>
    <rect x="65" y="65" width="20" height="8"/>
    <rect x="77" y="73" width="8" height="12"/>
  </g>
</svg>
