<svg id="Layer_1" xmlns="http://www.w3.org/2000/svg" viewBox="0 0 115.77 115.77"><defs><style>.cls-1{fill:#f97316;}.cls-2{fill:#fff;}</style></defs><rect class="cls-1" width="115.77" height="115.77" rx="37.86" ry="37.86"/><path class="cls-2" d="M44.09,24.14h-13.95c-3.31,0-6,2.69-6,6v13.96c0,3.31,2.69,6,6,6h13.95c3.31,0,6-2.69,6-6v-13.96c0-3.31-2.69-6-6-6ZM41.9,44.91h-9.57c-1.66,0-3-1.34-3-3v-9.58c0-1.66,1.34-3,3-3h9.57c1.66,0,3,1.34,3,3v9.58c0,1.66-1.34,3-3,3Z"/><rect class="cls-2" x="55.28" y="24.14" width="5.19" height="5.19" rx="2.59" ry="2.59"/><path class="cls-2" d="M85.62,24.14h-13.95c-3.31,0-6,2.69-6,6v13.96c0,3.31,2.69,6,6,6h13.95c3.31,0,6-2.69,6-6v-13.96c0-3.31-2.69-6-6-6ZM83.43,44.91h-9.57c-1.66,0-3-1.34-3-3v-9.58c0-1.66,1.34-3,3-3h9.57c1.66,0,3,1.34,3,3v9.58c0,1.66-1.34,3-3,3Z"/><path class="cls-2" d="M55.28,55.29h-18.17c-1.43,0-2.59,1.16-2.59,2.59h0c0,1.43,1.16,2.6,2.59,2.6h17.36c3.31,0,6-2.69,6-6v-17.36c0-1.43-1.16-2.59-2.59-2.59h0c-1.43,0-2.59,1.16-2.59,2.59v18.17Z"/><rect class="cls-2" x="24.14" y="55.29" width="5.19" height="5.19" rx="2.59" ry="2.59"/><rect class="cls-2" x="65.67" y="55.29" width="10.38" height="5.19" rx="2.59" ry="2.59"/><rect class="cls-2" x="86.43" y="55.29" width="5.19" height="5.19" rx="2.59" ry="2.59"/><rect class="cls-2" x="55.28" y="65.67" width="5.19" height="5.19" rx="2.59" ry="2.59"/><path class="cls-2" d="M91.62,68.27h0c0-1.43-1.16-2.6-2.59-2.6h-17.36c-3.31,0-6,2.69-6,6v17.36c0,1.43,1.16,2.59,2.59,2.59h0c1.43,0,2.59-1.16,2.59-2.59v-18.17h18.17c1.43,0,2.59-1.16,2.59-2.59Z"/><rect class="cls-2" x="55.28" y="76.05" width="5.19" height="15.57" rx="2.59" ry="2.59"/><path class="cls-2" d="M30.14,91.62h13.95c3.31,0,6-2.69,6-6v-13.95c0-3.31-2.69-6-6-6h-13.95c-3.31,0-6,2.69-6,6v13.95c0,3.31,2.69,6,6,6ZM32.33,70.86h9.57c1.66,0,3,1.34,3,3v9.57c0,1.66-1.34,3-3,3h-9.57c-1.66,0-3-1.34-3-3v-9.57c0-1.66,1.34-3,3-3Z"/><path class="cls-2" d="M76.05,82.05v3.57c0,3.31,2.69,6,6,6h3.57c3.31,0,6-2.69,6-6v-3.57c0-3.31-2.69-6-6-6h-3.57c-3.31,0-6,2.69-6,6ZM83.84,86.43h0c-1.43,0-2.59-1.16-2.59-2.59h0c0-1.43,1.16-2.6,2.59-2.6h0c1.43,0,2.59,1.16,2.59,2.59h0c0,1.43-1.16,2.6-2.59,2.6Z"/></svg>