<svg id="Layer_1" xmlns="http://www.w3.org/2000/svg" viewBox="0 0 473.85 115.77"><defs><style>.cls-1{fill:#f97316;}.cls-2{fill:#fff;}.cls-3{fill:#ffffff;}</style></defs><rect class="cls-1" width="115.77" height="115.77" rx="37.86" ry="37.86"/><path class="cls-2" d="M44.09,24.14h-13.95c-3.31,0-6,2.69-6,6v13.96c0,3.31,2.69,6,6,6h13.95c3.31,0,6-2.69,6-6v-13.96c0-3.31-2.69-6-6-6ZM41.9,44.91h-9.57c-1.66,0-3-1.34-3-3v-9.58c0-1.66,1.34-3,3-3h9.57c1.66,0,3,1.34,3,3v9.58c0,1.66-1.34,3-3,3Z"/><rect class="cls-2" x="55.28" y="24.14" width="5.19" height="5.19" rx="2.59" ry="2.59"/><path class="cls-2" d="M85.62,24.14h-13.95c-3.31,0-6,2.69-6,6v13.96c0,3.31,2.69,6,6,6h13.95c3.31,0,6-2.69,6-6v-13.96c0-3.31-2.69-6-6-6ZM83.43,44.91h-9.57c-1.66,0-3-1.34-3-3v-9.58c0-1.66,1.34-3,3-3h9.57c1.66,0,3,1.34,3,3v9.58c0,1.66-1.34,3-3,3Z"/><path class="cls-2" d="M55.28,55.29h-18.17c-1.43,0-2.59,1.16-2.59,2.59h0c0,1.43,1.16,2.6,2.59,2.6h17.36c3.31,0,6-2.69,6-6v-17.36c0-1.43-1.16-2.59-2.59-2.59h0c-1.43,0-2.59,1.16-2.59,2.59v18.17Z"/><rect class="cls-2" x="24.14" y="55.29" width="5.19" height="5.19" rx="2.59" ry="2.59"/><rect class="cls-2" x="65.67" y="55.29" width="10.38" height="5.19" rx="2.59" ry="2.59"/><rect class="cls-2" x="86.43" y="55.29" width="5.19" height="5.19" rx="2.59" ry="2.59"/><rect class="cls-2" x="55.28" y="65.67" width="5.19" height="5.19" rx="2.59" ry="2.59"/><path class="cls-2" d="M91.62,68.27h0c0-1.43-1.16-2.6-2.59-2.6h-17.36c-3.31,0-6,2.69-6,6v17.36c0,1.43,1.16,2.59,2.59,2.59h0c1.43,0,2.59-1.16,2.59-2.59v-18.17h18.17c1.43,0,2.59-1.16,2.59-2.59Z"/><rect class="cls-2" x="55.28" y="76.05" width="5.19" height="15.57" rx="2.59" ry="2.59"/><path class="cls-2" d="M30.14,91.62h13.95c3.31,0,6-2.69,6-6v-13.95c0-3.31-2.69-6-6-6h-13.95c-3.31,0-6,2.69-6,6v13.95c0,3.31,2.69,6,6,6ZM32.33,70.86h9.57c1.66,0,3,1.34,3,3v9.57c0,1.66-1.34,3-3,3h-9.57c-1.66,0-3-1.34-3-3v-9.57c0-1.66,1.34-3,3-3Z"/><path class="cls-2" d="M76.05,82.05v3.57c0,3.31,2.69,6,6,6h3.57c3.31,0,6-2.69,6-6v-3.57c0-3.31-2.69-6-6-6h-3.57c-3.31,0-6,2.69-6,6ZM83.84,86.43h0c-1.43,0-2.59-1.16-2.59-2.59h0c0-1.43,1.16-2.6,2.59-2.6h0c1.43,0,2.59,1.16,2.59,2.59h0c0,1.43-1.16,2.6-2.59,2.6Z"/><path class="cls-3" d="M166.89,24.92c14.72,0,26.5,11.85,26.5,26.58,0,9.57-5.52,18.26-13.62,23.19l9.5,14.87c.59,1.03,0,2.21-1.18,2.21h-9.94c-.59,0-.96-.37-1.18-.74l-7.8-13.18c-.88.07-1.77.07-2.28.07-14.72,0-26.43-11.71-26.43-26.43s11.71-26.58,26.43-26.58ZM166.89,66.15c8.1,0,14.72-6.63,14.72-14.65s-6.63-14.8-14.72-14.8-14.65,6.7-14.65,14.8,6.63,14.65,14.65,14.65Z"/><path class="cls-3" d="M197.96,49.14c0-.81.66-1.4,1.4-1.4h3.46c.81,0,1.1.44,1.33.88l1.33,3.24c1.47-2.14,4.2-4.86,8.03-4.86,4.05,0,6.92,1.47,5.89,3.17l-3.61,5.89c-.29.52-.81.96-1.62.66-.37-.15-1.1-.37-1.77-.37-2.21,0-3.9,1.69-3.9,4.2v15.24c0,.88-.44,1.4-1.62,1.4h-7.51c-.74,0-1.4-.66-1.4-1.4v-26.65Z"/><path class="cls-3" d="M221.45,33.02c0-3.24,2.58-5.89,5.82-5.89s5.89,2.65,5.89,5.89-2.65,5.82-5.89,5.82-5.82-2.58-5.82-5.82ZM221.89,49.14c0-.81.66-1.4,1.4-1.4h8.1c.74,0,1.4.59,1.4,1.4v26.65c0,.74-.66,1.4-1.4,1.4h-8.1c-.74,0-1.4-.66-1.4-1.4v-26.65Z"/><path class="cls-3" d="M237.13,49.14c0-.81.66-1.4,1.4-1.4h7.88c.74,0,1.4.59,1.4,1.4v13.62c0,3.02,1.69,5.67,4.71,5.67s4.42-2.72,4.42-5.23v-14.06c0-1.18.81-1.4,1.55-1.4h7.51c.74,0,1.4.59,1.4,1.4v26.65c0,.74-.66,1.4-1.4,1.4h-3.46c-.66,0-1.18-.52-1.4-1.03l-1.1-2.72c-1.91,1.84-4.27,4.49-9.94,4.49-8.76,0-12.96-7.07-12.96-15.46v-13.33Z"/><path class="cls-3" d="M272.33,73.95l2.58-5.08c.22-.44.96-.88,1.55-.59,0,0,3.46,1.91,6.63,1.91.74,0,1.4-.44,1.4-1.33,0-.74-.44-1.77-4.2-3.09-5.74-1.99-8.25-5.3-8.25-9.87,0-4.93,3.53-8.91,11.49-8.91,4.64,0,8.17,1.25,9.79,2.28.66.44,1.18,1.1.74,1.84l-2.72,5.01c-.22.44-.96.66-1.55.44,0,0-3.39-1.69-6.26-1.69-.96,0-1.62.22-1.62,1.03,0,.74.81,1.47,3.31,2.36,5.96,2.06,10.09,4.42,10.09,10.31,0,5.15-4.12,9.35-12.44,9.35-4.86,0-8.54-1.25-10.01-2.43-.52-.44-.88-.88-.52-1.55Z"/><path class="cls-3" d="M335.2,24.92c7.36,0,12.81,2.28,17.82,6.85.66.59.66,1.47.07,2.06l-5.74,5.96c-.52.51-1.33.51-1.84,0-2.72-2.43-6.33-3.75-9.94-3.75-8.32,0-14.43,6.92-14.43,15.17s6.18,14.95,14.5,14.95c3.46,0,7.21-1.25,9.87-3.53.52-.44,1.47-.44,1.92.07l5.74,6.11c.52.52.44,1.47-.07,1.99-5.01,4.86-11.34,7.14-17.89,7.14-14.72,0-26.58-11.71-26.58-26.43s11.85-26.58,26.58-26.58Z"/><path class="cls-3" d="M370.4,47.01c8.39,0,15.31,7.07,15.31,15.39s-6.92,15.54-15.31,15.54-15.31-7.07-15.31-15.54,6.92-15.39,15.31-15.39ZM370.4,68.43c3.24,0,5.82-2.72,5.82-6.04s-2.58-5.89-5.82-5.89-5.82,2.65-5.82,5.89,2.58,6.04,5.82,6.04Z"/><path class="cls-3" d="M401.69,47.01c2.5,0,5.23.88,6.11,1.4v-21.35c0-.74.66-1.4,1.4-1.4h8.17c.74,0,1.4.66,1.4,1.4v48.74c0,.74-.66,1.4-1.4,1.4h-3.46c-.74,0-1.25-.66-1.55-1.47l-.88-2.43s-3.39,4.64-9.87,4.64c-8.32,0-14.58-6.99-14.58-15.46,0-10.38,6.77-15.46,14.65-15.46ZM403.09,68.43c3.39,0,5.89-2.65,5.89-6.04s-2.5-5.89-5.89-5.89-5.96,2.58-5.96,5.89,2.58,6.04,5.96,6.04Z"/><path class="cls-3" d="M435.34,47.01c7.51,0,13.99,5.74,13.99,13.84,0,.52-.07,1.47-.15,1.99-.07.74-.74,1.25-1.4,1.25h-17.67c.22,1.99,1.84,4.86,5.67,4.86,1.84,0,3.98-.88,5.15-1.77.66-.52,1.4-.52,1.84,0l3.68,4.42c.44.59.59,1.47-.07,2.14-2.58,2.58-6.26,4.2-10.9,4.2-8.76,0-15.39-6.99-15.39-15.46s6.55-15.46,15.24-15.46ZM438.95,58.35c-.15-1.91-1.99-3.46-3.9-3.46s-3.68,1.55-3.98,3.46h7.88Z"/><path class="cls-3" d="M450.88,73.95l2.58-5.08c.22-.44.96-.88,1.55-.59,0,0,3.46,1.91,6.63,1.91.74,0,1.4-.44,1.4-1.33,0-.74-.44-1.77-4.2-3.09-5.74-1.99-8.25-5.3-8.25-9.87,0-4.93,3.53-8.91,11.49-8.91,4.64,0,8.17,1.25,9.79,2.28.66.44,1.18,1.1.74,1.84l-2.72,5.01c-.22.44-.96.66-1.55.44,0,0-3.39-1.69-6.26-1.69-.96,0-1.62.22-1.62,1.03,0,.74.81,1.47,3.31,2.36,5.96,2.06,10.09,4.42,10.09,10.31,0,5.15-4.12,9.35-12.44,9.35-4.86,0-8.54-1.25-10.01-2.43-.52-.44-.88-.88-.52-1.55Z"/></svg>